# ProBuilder 5.2.3
# https://unity3d.com/unity/features/worldbuilding/probuilder
# 2025-04-02 2:17:49 PM

mtllib ./Electrolysis.mtl
o Electrolysis

g Electrolysis
v -3.5 1.25 1
v -3.5 5.25 1
v -3.309699 1.25 1.956709
v -3.309699 5.25 1.956709
v -2.767767 1.25 2.767767
v -2.767767 5.25 2.767767
v -1.956708 1.25 3.309699
v -1.956708 5.25 3.309699
v -0.9999998 1.25 3.5
v -0.9999998 5.25 3.5
v -1 1.25 1
v -1 3.25 1
v 4 1 4.000001
v -4.000001 1 4.000001
v 4 1.25 4.000001
v -4.000001 1.25 4.000001
v -4 1 -4.000001
v -4 1.25 -4.000001
v 4.000001 1 -4.000001
v 4.000001 1.25 -4.000001
v 4 0 4.010001
v 3.900001 0 4.010001
v 4 1 4.010001
v 3.900001 1 4.010001
v 3.900001 0 3.910001
v 3.900001 1 3.910001
v 4.000001 0 3.910001
v 4.000001 1 3.910001
v 4.000001 0 -4.000001
v 4.000001 0 -3.900001
v 4.000001 1 -3.900001
v 3.900001 0 -3.900001
v 3.900001 1 -3.900001
v 3.900001 0 -4.000001
v 3.900001 1 -4.000001
v -3.900001 0 3.900001
v -3.900001 0 4.000001
v -3.900001 1 3.900001
v -3.900001 1 4.000001
v -4.000001 0 4.000001
v -4.000001 0 3.900001
v -4.000001 1 3.900001
v 3.978299 0.2019439 -3.955001
v 3.960934 0.1034632 -3.955001
v 0.03906691 0.8965368 -3.955001
v 0.02170241 0.7980561 -3.955001
v 3.960934 0.1034632 -3.965001
v 0.02170241 0.7980561 -3.965001
v 3.978299 0.2019439 -3.965001
v 0.03906691 0.8965368 -3.965001
v 3.978299 0.2019439 3.955001
v 3.960934 0.1034632 3.955001
v 0.03906715 0.8965368 3.955
v 0.02170217 0.7980561 3.955
v 3.960934 0.1034632 3.945001
v 0.02170217 0.7980561 3.945
v 3.978299 0.2019439 3.945001
v 0.03906715 0.8965368 3.945
v 3.945003 0.2019436 -3.978298
v 3.945003 0.1034629 -3.960934
v 3.944991 0.8965371 -0.03906655
v 3.944991 0.7980564 -0.02170181
v 3.935002 0.1034629 -3.960934
v 3.934991 0.7980564 -0.02170181
v 3.935003 0.2019436 -3.978298
v 3.934991 0.8965371 -0.03906655
v -3.954999 0.2019436 -3.978298
v -3.954999 0.1034629 -3.960934
v -3.955011 0.8965371 -0.03906655
v -3.955011 0.7980564 -0.02170181
v -3.964999 0.1034629 -3.960934
v -3.965011 0.7980564 -0.02170181
v -3.964998 0.2019436 -3.978298
v -3.965011 0.8965371 -0.03906655
v -0.02170169 0.2019439 -3.955001
v -0.03906667 0.1034632 -3.955001
v -3.960934 0.8965368 -3.955001
v -3.978298 0.7980561 -3.955001
v -0.03906667 0.1034632 -3.965001
v -3.978298 0.7980561 -3.965001
v -0.02170169 0.2019439 -3.965001
v -3.960934 0.8965368 -3.965001
v -0.02170193 0.2019439 3.955
v -0.03906643 0.1034632 3.955
v -3.960934 0.8965368 3.955001
v -3.978298 0.7980561 3.955001
v -0.03906643 0.1034632 3.945
v -3.978298 0.7980561 3.945
v -0.02170193 0.2019439 3.945
v -3.960934 0.8965368 3.945
v 3.944994 0.2019436 0.02170253
v 3.944994 0.1034629 0.03906727
v 3.944983 0.8965371 3.960935
v 3.944983 0.7980564 3.978299
v 3.934994 0.1034629 0.03906727
v 3.934982 0.7980564 3.978299
v 3.934994 0.2019436 0.02170253
v 3.934982 0.8965371 3.960935
v -3.955008 0.2019436 0.02170253
v -3.955008 0.1034629 0.03906727
v -3.955019 0.8965371 3.960934
v -3.955019 0.7980564 3.978299
v -3.965008 0.1034629 0.03906727
v -3.965019 0.7980564 3.978299
v -3.965007 0.2019436 0.02170253
v -3.965019 0.8965371 3.960934
v 3.960934 0.8965371 -3.935001
v 3.978299 0.7980564 -3.935001
v 0.02170217 0.2019436 -3.935001
v 0.03906691 0.1034629 -3.935001
v 3.978299 0.7980564 -3.945001
v 0.03906691 0.1034629 -3.945001
v 3.960934 0.8965371 -3.945001
v 0.02170217 0.2019436 -3.945001
v 3.960935 0.8965371 3.975001
v 3.978299 0.7980564 3.975001
v 0.02170217 0.2019436 3.975
v 0.03906667 0.1034629 3.975
v 3.978299 0.7980564 3.965001
v 0.03906667 0.1034629 3.965
v 3.960935 0.8965371 3.965001
v 0.02170217 0.2019436 3.965
v 3.965003 0.8965371 -3.960934
v 3.965003 0.7980564 -3.978299
v 3.964991 0.2019436 -0.02170181
v 3.964992 0.1034629 -0.03906631
v 3.955003 0.7980564 -3.978299
v 3.954991 0.1034629 -0.03906631
v 3.955003 0.8965371 -3.960934
v 3.954992 0.2019436 -0.02170181
v -3.934999 0.8965371 -3.960934
v -3.934998 0.7980564 -3.978298
v -3.93501 0.2019436 -0.02170181
v -3.93501 0.1034629 -0.03906655
v -3.944999 0.7980564 -3.978298
v -3.94501 0.1034629 -0.03906655
v -3.944999 0.8965371 -3.960934
v -3.94501 0.2019436 -0.02170181
v -0.03906643 0.8965371 -3.935001
v -0.02170169 0.7980564 -3.935001
v -3.978299 0.2019436 -3.935
v -3.960933 0.1034629 -3.935
v -0.02170169 0.7980564 -3.945001
v -3.960933 0.1034629 -3.945001
v -0.03906643 0.8965371 -3.945001
v -3.978299 0.2019436 -3.945001
v -0.03906643 0.8965371 3.975
v -0.02170169 0.7980564 3.975
v -3.978299 0.2019436 3.975001
v -3.960934 0.1034629 3.975001
v -0.02170169 0.7980564 3.965
v -3.960934 0.1034629 3.965
v -0.03906643 0.8965371 3.965
v -3.978299 0.2019436 3.965
v 3.964994 0.8965371 0.03906631
v 3.964993 0.7980564 0.02170181
v 3.964982 0.2019436 3.978299
v 3.964982 0.1034629 3.960934
v 3.954994 0.7980564 0.02170181
v 3.954982 0.1034629 3.960934
v 3.954994 0.8965371 0.03906631
v 3.954982 0.2019436 3.978299
v -3.935008 0.8965371 0.03906631
v -3.935008 0.7980564 0.02170157
v -3.93502 0.2019436 3.978299
v -3.93502 0.1034629 3.960934
v -3.945008 0.7980564 0.02170157
v -3.94502 0.1034629 3.960934
v -3.945008 0.8965371 0.03906631
v -3.94502 0.2019436 3.978299
v 0.05000031 0 -3.900001
v -0.04999959 0 -3.900001
v 0.05000031 1 -3.900001
v -0.04999959 1 -3.900001
v -0.04999959 0 -4.000001
v -0.04999959 1 -4.000001
v 0.05000031 0 -4.000001
v 0.05000031 1 -4.000001
v 0.05000031 0 4.010001
v -0.04999959 0 4.010001
v 0.05000031 1 4.010001
v -0.04999959 1 4.010001
v -0.04999983 0 3.91
v -0.04999983 1 3.91
v 0.05000031 0 3.91
v 0.05000031 1 3.91
v 3.999992 0 -0.04999948
v 3.999991 0 0.05000067
v 3.999992 1 -0.04999948
v 3.999991 1 0.05000067
v 3.899992 0 0.05000019
v 3.899992 1 0.05000019
v 3.899992 0 -0.04999971
v 3.899992 1 -0.04999971
v -3.90001 0 -0.04999948
v -3.90001 0 0.05000043
v -3.90001 1 -0.04999948
v -3.90001 1 0.05000043
v -4.00001 0 0.05000019
v -4.00001 1 0.05000019
v -4.00001 0 -0.04999971
v -4.00001 1 -0.04999971
v -3.9 0 -3.900001
v -4.000001 0 -3.900001
v -3.9 1 -3.900001
v -4.000001 1 -3.900001
v -4 0 -4.000001
v -3.900001 0 -4.000001
v -3.900001 1 -4.000001
v -1 1.25 -4.000001
v -1 5.25 -4.000001
v -1.95671 1.25 -3.8097
v -1.95671 5.25 -3.8097
v -2.767767 1.25 -3.267768
v -2.767767 5.25 -3.267768
v -3.309699 1.25 -2.456709
v -3.309699 5.25 -2.456709
v -3.5 1.25 -1.5
v -3.5 5.25 -1.5
v -1 1.25 -1.5
v -1 3.25 -1.5
v 3.500001 1.25 -1.5
v 3.500001 5.25 -1.5
v 3.3097 1.25 -2.45671
v 3.3097 5.25 -2.45671
v 2.767769 1.25 -3.267767
v 2.767769 5.25 -3.267767
v 1.956709 1.25 -3.8097
v 1.956709 5.25 -3.8097
v 1.000001 1.25 -4.000001
v 1.000001 5.25 -4.000001
v 1 1.25 -1.5
v 1 3.25 -1.5
v 1 1.25 3.5
v 1 5.25 3.5
v 1.95671 1.25 3.309699
v 1.95671 5.25 3.309699
v 2.767767 1.25 2.767768
v 2.767767 5.25 2.767768
v 3.3097 1.25 1.956709
v 3.3097 5.25 1.956709
v 3.500001 1.25 1
v 3.500001 5.25 1
v 1 1.25 1
v 1 3.25 1

vt -0.4877262 0
vt -0.4877262 4
vt 0.4877259 0
vt 0.4877259 4
vt 0 -2.5
vt 0 0
vt -0.956709 -2.309699
vt 0.6286109 -4.410545
vt 0.3143055 -1.224449
vt 1.573432 -4.168018
vt -1.767767 -1.767767
vt 2.522447 -3.672237
vt 0.8255191 -0.9573823
vt 3.261191 -3.035243
vt -2.309699 -0.9567086
vt 3.708212 -2.469257
vt 1.12259 -0.5812524
vt 4.156723 -1.603033
vt -2.5 0
vt 4.302352 -1.156646
vt 1.24939 -0.1925798
vt 4.450952 -0.1925797
vt 2.212296 0.1346651
vt 2.212296 4.107823
vt 0 1.986579
vt -1.164366 4.229021
vt -1.164366 0.2558636
vt 4 -0.125
vt -4 -0.125
vt 4 0.125
vt -4 0.125
vt -3.999998 4
vt 4 3.999999
vt -4 -3.999999
vt 3.999999 -4
vt -4 -4
vt 4 4
vt -4 4
vt -0.0999999 0
vt 4.768372E-07 1
vt -0.0999999 1
vt 0.0999999 0
vt 0.0999999 1
vt 7.152557E-07 0.09999943
vt 0.1000001 0.09999943
vt 0.1000001 0
vt -0.1000001 0
vt -0.1000001 0.0999999
vt -0.1000004 1
vt 0.1000004 1
vt 0 0.1000004
vt 0.1000004 0.1000004
vt -0.1000004 0.1000004
vt 0.0999999 0.09999943
vt -0.0999999 0.09999943
vt 0.05000091 -2
vt -0.04999995 -2
vt 0.04999995 2
vt -0.05000091 2
vt 0.005000114 -2
vt -0.005000114 -2
vt 0.004999638 2
vt -0.005000591 2
vt 0.04999995 -2
vt -0.05000043 -1.999999
vt 0.05000067 2
vt -0.04999995 2
vt 0.005000114 -2
vt -0.005000114 -2
vt 0.005000591 2
vt -0.004999638 2
vt -0.05000019 0.005000114
vt 0.05000019 0.005000114
vt -0.05000019 -0.005000114
vt 0.05000019 -0.005000114
vt -0.04999995 -2
vt 0.004999876 -2
vt -0.004999876 -2
vt -0.004999876 2
vt 0.05000305 2
vt -0.04999995 0.005000114
vt 0.04999995 0.005000114
vt -0.04999995 -0.005000114
vt 0.04999995 -0.005000114
vt 0.04999828 -2
vt 0.04999995 2
vt 0.004999638 -2
vt -0.004988194 -2
vt 0.00498724 2
vt -0.005000114 2
vt -0.04999995 2
vt -0.05000019 0.004999876
vt 0.05000019 0.004999876
vt 0.05000019 -0.004999876
vt -0.05000019 -0.004999876
vt 0.05000007 -2
vt -0.05000001 2
vt -0.04999995 0.004999995
vt 0.04999995 0.004999995
vt -0.04999995 -0.004999995
vt 0.04999995 -0.004999995
vt -0.05000067 -2
vt 0.6213174 -4.457868
vt 0.3070107 -1.271772
vt 1.566138 -4.21534
vt 2.470491 -3.77258
vt 0.7735634 -1.057725
vt 3.209235 -3.135586
vt 3.622636 -2.543046
vt 1.037014 -0.6550419
vt 4.071148 -1.676823
vt 4.255974 -1.16855
vt 1.203012 -0.2044843
vt 4.404574 -0.2044843
vt -2.384186E-07 -2.5
vt 2.185467 -0.1037903
vt 2.825863 3.980955
vt 1.111955 1.887569
vt -1.115833 4.471258
vt -1.756228 0.3865132
vt 0.7917576 -0.1548033

vn -0.9807853 0 0.1950907
vn -0.9238794 0 0.3826836
vn -0.7071068 0 0.7071068
vn -0.3826834 0 0.9238795
vn -0.1950903 0 0.9807853
vn 0 -1 0
vn 0.6199273 0.7749093 -0.1233115
vn 0.5255491 0.7749093 -0.3511607
vn 0.3511606 0.7749093 -0.5255491
vn 0.1233112 0.7749093 -0.6199274
vn -9.536743E-08 0 -1
vn 0.3333333 0 -0.6666667
vn 1 0 -9.536743E-08
vn 0.6666666 0 -0.3333334
vn 0 0 1
vn -1 0 -1.192093E-07
vn 0 1 0
vn -0.1736482 -0.9848078 0
vn 0.1736482 0.9848078 0
vn -0.9848083 0.1736452 0
vn 0.9848074 -0.1736499 0
vn 0 -0.9848077 0.1736483
vn 0 0.9848077 -0.1736483
vn 0 0.1736476 0.9848079
vn 0 -0.1736452 -0.9848083
vn 0.1736483 -0.9848077 0
vn -0.1736483 0.9848077 0
vn -0.9848079 -0.1736476 0
vn 0.9848074 0.1736499 0
vn 0 -0.9848077 -0.1736483
vn 0 0.9848077 0.1736483
vn 0 -0.1736452 0.9848083
vn 0 0.1736499 -0.9848074
vn -0.1950904 0 -0.9807853
vn -0.3826835 0 -0.9238794
vn -0.7071069 0 -0.7071067
vn -0.9238796 0 -0.3826833
vn -0.9807853 0 -0.1950901
vn 0.1233113 0.7749093 0.6199273
vn 0.3511607 0.7749093 0.5255489
vn 0.525549 0.7749093 0.3511606
vn 0.6199274 0.7749093 0.1233111
vn 0.6666667 0 0.3333333
vn 0.3333333 0 0.6666667
vn 0.9807854 0 -0.1950899
vn 0.9238796 0 -0.3826832
vn 0.7071068 0 -0.7071068
vn 0.3826834 0 -0.9238796
vn 0.1950901 0 -0.9807853
vn -0.6199273 0.7749093 0.1233109
vn -0.5255489 0.7749094 0.3511606
vn -0.3511607 0.7749094 0.5255489
vn -0.1233111 0.7749094 0.6199273
vn -0.3333334 0 0.6666666
vn -0.6666667 0 0.3333333
vn 0.1950904 0 0.9807853
vn 0.3826834 0 0.9238796
vn 0.7071067 0 0.7071069
vn 0.9238794 0 0.3826835
vn 0.9807853 0 0.1950905
vn -0.1233113 0.7749093 -0.6199273
vn -0.3511605 0.7749093 -0.5255491
vn -0.5255491 0.7749093 -0.3511607
vn -0.6199273 0.7749093 -0.1233113
vn -0.6666667 0 -0.3333334
vn -0.3333333 0 -0.6666667

usemtl Lit
f 1/5/6 11/6/6 3/7/6
f 3/7/6 11/6/6 5/11/6
f 5/11/6 11/6/6 7/15/6
f 7/15/6 11/6/6 9/19/6
f 4/10/7 12/9/7 2/8/7
f 6/14/8 12/13/8 4/12/8
f 8/18/9 12/17/9 6/16/9
f 10/22/10 12/21/10 8/20/10
f 10/26/13 9/27/13 11/6/14
f 12/25/12 1/23/11 2/24/11
f 12/25/12 11/6/14 1/23/11
f 10/26/13 11/6/14 12/25/12
f 210/5/6 220/6/6 212/7/6
f 212/7/6 220/6/6 214/11/6
f 214/11/6 220/6/6 216/15/6
f 216/15/6 220/6/6 218/19/6
f 213/105/39 221/104/39 211/103/39
f 215/108/40 221/107/40 213/106/40
f 217/111/41 221/110/41 215/109/41
f 219/114/42 221/113/42 217/112/42
f 219/26/15 218/27/15 220/6/44
f 221/25/43 210/23/13 211/24/13
f 221/25/43 220/6/44 210/23/13
f 219/26/15 220/6/44 221/25/43
f 222/115/6 232/6/6 224/7/6
f 224/7/6 232/6/6 226/11/6
f 226/11/6 232/6/6 228/15/6
f 228/15/6 232/6/6 230/19/6
f 225/10/50 233/9/50 223/8/50
f 227/14/51 233/13/51 225/12/51
f 229/18/52 233/17/52 227/16/52
f 231/22/53 233/21/53 229/20/53
f 231/119/16 230/120/16 232/121/55
f 233/118/54 222/116/15 223/117/15
f 233/118/54 232/121/55 222/116/15
f 231/119/16 232/121/55 233/118/54
f 234/5/6 244/6/6 236/7/6
f 236/7/6 244/6/6 238/11/6
f 238/11/6 244/6/6 240/15/6
f 240/15/6 244/6/6 242/19/6
f 237/105/61 245/104/61 235/103/61
f 239/108/62 245/107/62 237/106/62
f 241/111/63 245/110/63 239/109/63
f 243/114/64 245/113/64 241/112/64
f 243/119/11 242/120/11 244/121/66
f 245/118/65 234/116/16 235/117/16
f 245/118/65 244/121/66 234/116/16
f 243/119/11 244/121/66 245/118/65
f 4/4/2 2/2/1 1/1/1
f 1/1/1 3/3/2 4/4/2
f 6/4/3 4/2/2 3/1/2
f 3/1/2 5/3/3 6/4/3
f 8/4/4 6/2/3 5/1/3
f 5/1/3 7/3/4 8/4/4
f 10/4/5 8/2/4 7/1/4
f 7/1/4 9/3/5 10/4/5
f 213/4/35 211/2/34 210/1/34
f 210/1/34 212/3/35 213/4/35
f 215/4/36 213/2/35 212/1/35
f 212/1/35 214/3/36 215/4/36
f 217/4/37 215/2/36 214/1/36
f 214/1/36 216/3/37 217/4/37
f 219/4/38 217/2/37 216/1/37
f 216/1/37 218/3/38 219/4/38
f 225/4/46 223/2/45 222/1/45
f 222/1/45 224/3/46 225/4/46
f 227/4/47 225/2/46 224/1/46
f 224/1/46 226/3/47 227/4/47
f 229/4/48 227/2/47 226/1/47
f 226/1/47 228/3/48 229/4/48
f 231/4/49 229/2/48 228/1/48
f 228/1/48 230/3/49 231/4/49
f 237/4/57 235/2/56 234/1/56
f 234/1/56 236/3/57 237/4/57
f 239/4/58 237/2/57 236/1/57
f 236/1/57 238/3/58 239/4/58
f 241/4/59 239/2/58 238/1/58
f 238/1/58 240/3/59 241/4/59
f 243/4/60 241/2/59 240/1/59
f 240/1/59 242/3/60 243/4/60

usemtl PureLightGray
f 15/30/15 16/31/15 14/29/15 13/28/15
f 16/30/16 18/31/16 17/29/16 14/28/16
f 18/30/11 20/31/11 19/29/11 17/28/11
f 20/30/13 15/31/13 13/29/13 19/28/13
f 20/34/17 18/35/17 16/33/17 15/32/17
f 13/37/6 14/38/6 17/36/6 19/35/6

usemtl PureBlack
f 23/40/15 24/41/15 22/39/15 21/6/15
f 24/43/16 26/40/16 25/6/16 22/42/16
f 26/43/11 28/40/11 27/6/11 25/42/11
f 28/40/13 23/41/13 21/39/13 27/6/13
f 28/6/17 26/46/17 24/45/17 23/44/17
f 21/44/6 22/48/6 25/47/6 27/6/6
f 19/40/13 31/49/13 30/47/13 29/6/13
f 31/43/15 33/40/15 32/6/15 30/42/15
f 33/50/16 35/40/16 34/6/16 32/46/16
f 35/40/11 19/49/11 29/47/11 34/6/11
f 35/6/17 33/42/17 31/52/17 19/51/17
f 29/51/6 30/53/6 32/39/6 34/6/6
f 38/40/13 39/41/13 37/39/13 36/6/13
f 39/43/15 14/40/15 40/6/15 37/42/15
f 14/50/16 42/40/16 41/6/16 40/46/16
f 42/40/11 38/49/11 36/47/11 41/6/11
f 42/6/17 14/42/17 39/54/17 38/44/17
f 36/44/6 37/55/6 40/39/6 41/6/6
f 45/58/15 46/59/15 44/57/15 43/56/15
f 46/62/18 48/63/18 47/61/18 44/60/18
f 48/66/11 50/67/11 49/65/11 47/64/11
f 50/70/19 45/71/19 43/69/19 49/68/19
f 50/74/20 48/75/20 46/73/20 45/72/20
f 43/73/21 44/72/21 47/74/21 49/75/21
f 53/58/15 54/59/15 52/76/15 51/56/15
f 54/62/18 56/79/18 55/78/18 52/77/18
f 56/80/11 58/67/11 57/65/11 55/64/11
f 58/70/19 53/71/19 51/61/19 57/77/19
f 58/83/20 56/84/20 54/82/20 53/81/20
f 51/82/21 52/81/21 55/83/21 57/84/21
f 61/86/13 62/67/13 60/57/13 59/85/13
f 62/89/22 64/90/22 63/88/22 60/87/22
f 64/58/16 66/91/16 65/57/16 63/64/16
f 66/70/23 61/71/23 59/88/23 65/87/23
f 66/74/24 64/94/24 62/93/24 61/92/24
f 59/93/25 60/72/25 63/95/25 65/94/25
f 69/86/13 70/67/13 68/57/13 67/85/13
f 70/89/22 72/90/22 71/88/22 68/68/22
f 72/58/16 74/91/16 73/57/16 71/85/16
f 74/70/23 69/71/23 67/69/23 73/87/23
f 74/83/24 72/84/24 70/82/24 69/81/24
f 67/82/25 68/81/25 71/83/25 73/84/25
f 77/58/15 78/59/15 76/76/15 75/56/15
f 78/70/18 80/90/18 79/88/18 76/68/18
f 80/80/11 82/67/11 81/65/11 79/56/11
f 82/70/19 77/90/19 75/69/19 81/87/19
f 82/74/20 80/84/20 78/82/20 77/72/20
f 75/73/21 76/81/21 79/83/21 81/75/21
f 85/80/15 86/67/15 84/65/15 83/85/15
f 86/70/18 88/90/18 87/69/18 84/87/18
f 88/58/11 90/59/11 89/57/11 87/85/11
f 90/70/19 85/71/19 83/69/19 89/87/19
f 90/83/20 88/84/20 86/82/20 85/81/20
f 83/82/21 84/81/21 87/83/21 89/84/21
f 93/80/13 94/91/13 92/65/13 91/85/13
f 94/62/22 96/71/22 95/88/22 92/68/22
f 96/58/16 98/67/16 97/57/16 95/85/16
f 98/70/23 93/71/23 91/69/23 97/87/23
f 98/95/24 96/94/24 94/73/24 93/72/24
f 91/93/25 92/72/25 95/95/25 97/94/25
f 101/58/13 102/67/13 100/76/13 99/85/13
f 102/62/22 104/79/22 103/88/22 100/68/22
f 104/58/16 106/97/16 105/57/16 103/96/16
f 106/70/23 101/71/23 99/69/23 105/87/23
f 106/100/24 104/101/24 102/99/24 101/98/24
f 99/82/25 100/81/25 103/83/25 105/84/25
f 109/80/15 110/67/15 108/102/15 107/85/15
f 110/70/26 112/90/26 111/78/26 108/60/26
f 112/58/11 114/59/11 113/102/11 111/96/11
f 114/70/27 109/90/27 107/61/27 113/77/27
f 114/83/28 112/84/28 110/82/28 109/81/28
f 107/73/29 108/72/29 111/74/29 113/75/29
f 117/58/15 118/67/15 116/57/15 115/85/15
f 118/89/26 120/71/26 119/78/26 116/77/26
f 120/58/11 122/67/11 121/57/11 119/85/11
f 122/70/27 117/71/27 115/69/27 121/87/27
f 122/83/28 120/84/28 118/82/28 117/81/28
f 115/82/29 116/81/29 119/83/29 121/84/29
f 125/80/13 126/67/13 124/102/13 123/85/13
f 126/89/30 128/90/30 127/88/30 124/87/30
f 128/58/16 130/97/16 129/57/16 127/56/16
f 130/70/31 125/71/31 123/69/31 129/87/31
f 130/95/32 128/75/32 126/93/32 125/92/32
f 123/82/33 124/92/33 127/95/33 129/94/33
f 133/58/13 134/91/13 132/57/13 131/85/13
f 134/62/30 136/63/30 135/88/30 132/68/30
f 136/86/16 138/67/16 137/57/16 135/85/16
f 138/70/31 133/71/31 131/88/31 137/87/31
f 138/95/32 136/101/32 134/93/32 133/98/32
f 131/99/33 132/81/33 135/83/33 137/84/33
f 141/58/15 142/59/15 140/57/15 139/96/15
f 142/70/26 144/90/26 143/61/26 140/60/26
f 144/80/11 146/67/11 145/102/11 143/85/11
f 146/70/27 141/90/27 139/69/27 145/68/27
f 146/74/28 144/84/28 142/82/28 141/72/28
f 139/73/29 140/72/29 143/74/29 145/75/29
f 149/86/15 150/59/15 148/57/15 147/96/15
f 150/70/26 152/90/26 151/69/26 148/87/26
f 152/86/11 154/67/11 153/65/11 151/85/11
f 154/70/27 149/71/27 147/69/27 153/87/27
f 154/83/28 152/84/28 150/82/28 149/81/28
f 147/82/29 148/81/29 151/83/29 153/84/29
f 157/86/13 158/59/13 156/57/13 155/85/13
f 158/89/30 160/71/30 159/88/30 156/87/30
f 160/86/16 162/67/16 161/102/16 159/85/16
f 162/70/31 157/71/31 155/69/31 161/87/31
f 162/83/32 160/75/32 158/73/32 157/81/32
f 155/73/33 156/92/33 159/74/33 161/75/33
f 165/58/13 166/97/13 164/57/13 163/85/13
f 166/89/30 168/71/30 167/88/30 164/87/30
f 168/80/16 170/67/16 169/57/16 167/85/16
f 170/70/31 165/71/31 163/69/31 169/87/31
f 170/95/32 168/101/32 166/99/32 165/98/32
f 163/99/33 164/92/33 167/100/33 169/101/33
f 173/40/15 174/41/15 172/39/15 171/6/15
f 174/50/16 176/40/16 175/6/16 172/46/16
f 176/43/11 178/40/11 177/6/11 175/42/11
f 178/40/13 173/49/13 171/47/13 177/6/13
f 178/6/17 176/46/17 174/52/17 173/51/17
f 171/51/6 172/53/6 175/47/6 177/6/6
f 181/40/15 182/41/15 180/39/15 179/6/15
f 182/43/16 184/40/16 183/6/16 180/42/16
f 184/43/11 186/40/11 185/6/11 183/42/11
f 186/40/13 181/41/13 179/39/13 185/6/13
f 186/6/17 184/42/17 182/54/17 181/44/17
f 179/44/6 180/55/6 183/39/6 185/6/6
f 189/40/13 190/41/13 188/39/13 187/6/13
f 190/43/15 192/40/15 191/6/15 188/42/15
f 192/43/16 194/40/16 193/6/16 191/42/16
f 194/40/11 189/41/11 187/39/11 193/6/11
f 194/6/17 192/42/17 190/54/17 189/44/17
f 187/51/6 188/55/6 191/39/6 193/6/6
f 197/40/13 198/41/13 196/39/13 195/6/13
f 198/43/15 200/40/15 199/6/15 196/42/15
f 200/43/16 202/40/16 201/6/16 199/42/16
f 202/40/11 197/41/11 195/39/11 201/6/11
f 202/6/17 200/42/17 198/45/17 197/44/17
f 195/44/6 196/55/6 199/39/6 201/6/6
f 205/40/15 206/41/15 204/39/15 203/6/15
f 206/43/16 17/40/16 207/6/16 204/42/16
f 17/43/11 209/40/11 208/6/11 207/42/11
f 209/40/13 205/41/13 203/39/13 208/6/13
f 209/6/17 17/42/17 206/54/17 205/44/17
f 203/51/6 204/55/6 207/39/6 208/6/6

